# xmcd CD database file
#
# Track frame offsets:
#	150
#	13988
#	29977
#	45777
#	61722
#	76341
#	91303
#	106780
#	120900
#	137137
#	151966
#
# Disc length: 2203 seconds
#
# Revision: 1
# Processed by: cddbd v1.5.2PL0 Copyright (c) Steve Scherf et al.
# Submitted via: CDex 1.51
#
DISCID=7e08990b
DTITLE=Morgan Evans - Things That We Drink To
DYEAR=2017
DGENRE=Country
TTITLE0=Morgan Evans - American
TTITLE1=Morgan Evans - Kiss Somebody
TTITLE2=Morgan Evans - I Do
TTITLE3=Morgan Evans - Song For The Summer
TTITLE4=Morgan Evans - Day Drunk
TTITLE5=Morgan Evans feat. Kelsea Ballerini - Dance With Me
TTITLE6=Morgan Evans - Me On You
TTITLE7=Morgan Evans - Things That We Drink To
TTITLE8=Morgan Evans - We Dream
TTITLE9=Morgan Evans - Everything Changes
TTITLE10=Morgan Evans - Young Again
EXTD=YEAR: 2017
EXTT0=
EXTT1=
EXTT2=
EXTT3=
EXTT4=
EXTT5=
EXTT6=
EXTT7=
EXTT8=
EXTT9=
EXTT10=
PLAYORDER=
